General
Complete name                    : C:\Documents and Settings\Dave\My Documents\BILL WYMAN (1981) Je Suis Un Rock Star.mpg
Format                           : MPEG-PS
File size                        : 169 MiB
Duration                         : 3mn 19s
Overall bit rate                 : 7 105 Kbps

Video
ID                               : 224 (0xE0)
Format                           : MPEG Video
Format version                   : Version 2
Format profile                   : Main@Main
Format settings, BVOP            : Yes
Format settings, Matrix          : Default
Duration                         : 3mn 19s
Bit rate mode                    : Variable
Bit rate                         : 6 772 Kbps
Nominal bit rate                 : 9 600 Kbps
Width                            : 720 pixels
Height                           : 576 pixels
Display aspect ratio             : 4:3
Frame rate                       : 25.000 fps
Standard                         : PAL
Color space                      : YUV
Chroma subsampling               : 4:2:0
Bit depth                        : 8 bits
Scan type                        : Interlaced
Scan order                       : Top Field First
Bits/(Pixel*Frame)               : 0.653
Stream size                      : 161 MiB (95%)

Audio
ID                               : 128 (0x80)
Format                           : AC-3
Format/Info                      : Audio Coding 3
Mode extension                   : CM (complete main)
Duration                         : 3mn 19s
Bit rate mode                    : Constant
Bit rate                         : 192 Kbps
Channel(s)                       : 2 channels
Channel positions                : Front: L R
Sampling rate                    : 48.0 KHz
Bit depth                        : 16 bits
Stream size                      : 4.57 MiB (3%)